<?xml version="1.0" encoding="UTF-8" standalone="no"?><!DOCTYPE svg PUBLIC "-//W3C//DTD SVG 1.1//EN" "http://www.w3.org/Graphics/SVG/1.1/DTD/svg11.dtd"><svg width="100%" height="100%" viewBox="0 0 872 228" version="1.1" xmlns="http://www.w3.org/2000/svg" xmlns:xlink="http://www.w3.org/1999/xlink" xml:space="preserve" xmlns:serif="http://www.serif.com/" style="fill-rule:evenodd;clip-rule:evenodd;stroke-linejoin:round;stroke-miterlimit:2;"><g id="HatTipLogo"><g><g><g><path d="M34.63,162.311c-0,0 -12.161,-61.78 -12.679,-81.018c0,-0 1.892,-53.342 75.057,-68.58c0,0 79.171,-30.076 105.538,24.336c0,-0 23.043,57.323 25.34,76.89c-0,-0 -54.47,39.073 -191.821,54.367l-1.435,-5.995Z" style="fill:#23363f;fill-rule:nonzero;"/><path d="M39.277,181.692l-3.212,-13.386c0,0 121.934,-11.235 191.821,-54.367l3.887,16.204c-0,0 -89.1,59.637 -192.496,51.549Z" style="fill:#04b578;fill-rule:nonzero;"/><path d="M33.852,158.024l5.425,23.668c-0,-0 89.059,11.137 192.496,-51.549l-3.887,-16.204l24.889,-12.006c0,0 7.231,-3.973 4.524,7.481c-0,-0 1.639,57.953 -130.251,87.314c-126.754,28.218 -131.385,-32.575 -117.094,-35.613l23.898,-3.091Z" style="fill:#233640;fill-rule:nonzero;"/></g></g></g><path d="M323.017,181.818l-0,-129.654l26.486,0l0,52.047l56.678,0l-0,-52.047l26.486,0l0,129.654l-26.486,0l-0,-54.269l-56.678,-0l0,54.269l-26.486,0Z" style="fill:#233640;fill-rule:nonzero;"/><path d="M483.535,183.958c-8.644,-0 -16.176,-2.223 -22.597,-6.668c-6.421,-4.446 -11.391,-10.403 -14.91,-17.874c-3.519,-7.471 -5.279,-15.713 -5.279,-24.727c-0,-9.261 2.007,-17.658 6.02,-25.19c4.013,-7.532 9.785,-13.49 17.318,-17.874c7.532,-4.383 16.546,-6.575 27.042,-6.575c10.619,0 19.571,2.223 26.857,6.668c7.285,4.445 12.842,10.434 16.67,17.966c3.828,7.533 5.741,15.868 5.741,25.005l0,47.046l-25.375,0l0,-15.744l-0.37,0c-1.852,3.334 -4.168,6.36 -6.946,9.076c-2.778,2.717 -6.143,4.878 -10.094,6.483c-3.952,1.605 -8.644,2.408 -14.077,2.408Zm7.223,-21.671c4.94,-0 9.2,-1.235 12.781,-3.705c3.581,-2.469 6.328,-5.834 8.242,-10.094c1.914,-4.26 2.871,-8.983 2.871,-14.169c-0,-5.187 -0.957,-9.848 -2.871,-13.985c-1.914,-4.136 -4.661,-7.439 -8.242,-9.909c-3.581,-2.469 -7.841,-3.704 -12.781,-3.704c-5.062,-0 -9.415,1.235 -13.058,3.704c-3.642,2.47 -6.421,5.773 -8.335,9.909c-1.913,4.137 -2.87,8.798 -2.87,13.985c-0,5.186 0.957,9.909 2.87,14.169c1.914,4.26 4.693,7.625 8.335,10.094c3.643,2.47 7.996,3.705 13.058,3.705Z" style="fill:#233640;fill-rule:nonzero;"/><path d="M588.288,181.845c-8.396,0 -14.971,-2.407 -19.725,-7.223c-4.754,-4.816 -7.131,-11.36 -7.131,-19.634l-0,-91.313l25.375,-0l-0,90.573c-0,1.605 0.586,2.994 1.759,4.167c1.173,1.173 2.563,1.76 4.168,1.76l20.559,-0l0,21.67l-25.005,0Zm-42.971,-72.791l0,-21.671l67.976,0l0,21.671l-67.976,-0Z" style="fill:#233640;fill-rule:nonzero;"/><g><path d="M701.458,181.818c-7.656,0 -14.386,-1.759 -20.189,-5.278c-5.804,-3.52 -10.311,-8.212 -13.521,-14.077c-3.211,-5.865 -4.816,-12.317 -4.816,-19.356l-0,-67.605l-36.118,-0l-0,-23.338l98.722,0l0,23.338l-36.118,-0l0,70.754c0,3.334 1.173,6.205 3.52,8.613c2.346,2.408 5.186,3.612 8.52,3.612l9.261,-0l-0,23.337l-9.261,0Z" style="fill:#00b677;fill-rule:nonzero;"/><path d="M733.316,181.818l-0,-94.462l25.56,0l-0,94.462l-25.56,0Zm12.78,-105.76c-4.322,-0 -8.057,-1.575 -11.206,-4.724c-3.149,-3.148 -4.723,-6.884 -4.723,-11.205c-0,-4.322 1.574,-8.057 4.723,-11.206c3.149,-3.149 6.884,-4.723 11.206,-4.723c4.322,-0 8.057,1.574 11.206,4.723c3.148,3.149 4.723,6.884 4.723,11.206c-0,4.321 -1.575,8.057 -4.723,11.205c-3.149,3.149 -6.884,4.724 -11.206,4.724Z" style="fill:#00b677;fill-rule:nonzero;"/><path d="M818.332,85.133c8.026,0 15.126,1.266 21.3,3.797c6.174,2.532 11.36,6.113 15.559,10.743c4.198,4.631 7.408,10.064 9.631,16.3c2.223,6.235 3.334,13.058 3.334,20.466c-0,9.261 -1.883,17.473 -5.649,24.635c-3.766,7.162 -9.045,12.78 -15.837,16.855c-6.791,4.075 -14.817,6.112 -24.078,6.112c-3.952,0 -7.749,-0.556 -11.391,-1.667c-3.643,-1.111 -6.915,-2.717 -9.817,-4.816c-2.902,-2.099 -5.341,-4.568 -7.316,-7.408l-0.185,-0l-0,52.417l-25.376,-0l0,-86.128c0,-10.495 2.038,-19.571 6.113,-27.227c4.075,-7.656 9.847,-13.583 17.318,-17.781c7.47,-4.198 16.268,-6.298 26.394,-6.298Zm-0,21.671c-4.94,0 -9.23,1.235 -12.873,3.705c-3.643,2.469 -6.421,5.803 -8.335,10.001c-1.914,4.199 -2.871,8.891 -2.871,14.077c0,5.186 0.957,9.879 2.871,14.077c1.914,4.198 4.692,7.532 8.335,10.002c3.643,2.469 7.933,3.704 12.873,3.704c5.062,0 9.384,-1.235 12.965,-3.704c3.581,-2.47 6.328,-5.804 8.242,-10.002c1.914,-4.198 2.871,-8.891 2.871,-14.077c0,-5.186 -0.957,-9.878 -2.871,-14.077c-1.914,-4.198 -4.661,-7.532 -8.242,-10.001c-3.581,-2.47 -7.903,-3.705 -12.965,-3.705Z" style="fill:#00b677;fill-rule:nonzero;"/></g></g></svg>