<?xml version="1.0" encoding="UTF-8"?>
<svg width="843.8" height="226.15" clip-rule="evenodd" fill-rule="evenodd" stroke-linejoin="round" stroke-miterlimit="2" version="1.1" viewBox="0 0 843.8 226.15" xml:space="preserve" xmlns="http://www.w3.org/2000/svg"><g transform="translate(-.35149 -.42168)"><g fill-rule="nonzero"><path d="m34.63 162.31s-12.161-61.78-12.679-81.018c0 0 1.892-53.342 75.057-68.58 0 0 79.171-30.076 105.54 24.336 0 0 23.043 57.323 25.34 76.89 0 0-54.47 39.073-191.82 54.367z" fill="#23363f"/><path d="m39.277 181.69-3.212-13.386s121.93-11.235 191.82-54.367l3.887 16.204s-89.1 59.637-192.5 51.549z" fill="#04b578"/><path d="m33.852 158.02 5.425 23.668s89.059 11.137 192.5-51.549l-3.887-16.204 24.889-12.006s7.231-3.973 4.524 7.481c0 0 1.639 57.953-130.25 87.314-126.75 28.218-131.38-32.575-117.09-35.613z" fill="#233640"/></g></g><g fill="#233640" fill-rule="nonzero"><path d="m322.67 181.4v-129.65h26.486v52.047h56.678v-52.047h26.486v129.65h-26.486v-54.269h-56.678v54.269z"/><path d="m483.18 183.54c-8.644 0-16.176-2.223-22.597-6.668-6.421-4.446-11.391-10.403-14.91-17.874s-5.279-15.713-5.279-24.727c0-9.261 2.007-17.658 6.02-25.19s9.785-13.49 17.318-17.874c7.532-4.383 16.546-6.575 27.042-6.575 10.619 0 19.571 2.223 26.857 6.668 7.285 4.445 12.842 10.434 16.67 17.966 3.828 7.533 5.741 15.868 5.741 25.005v47.046h-25.375v-15.744h-0.37c-1.852 3.334-4.168 6.36-6.946 9.076-2.778 2.717-6.143 4.878-10.094 6.483-3.952 1.605-8.644 2.408-14.077 2.408zm7.223-21.671c4.94 0 9.2-1.235 12.781-3.705 3.581-2.469 6.328-5.834 8.242-10.094s2.871-8.983 2.871-14.169c0-5.187-0.957-9.848-2.871-13.985-1.914-4.136-4.661-7.439-8.242-9.909-3.581-2.469-7.841-3.704-12.781-3.704-5.062 0-9.415 1.235-13.058 3.704-3.642 2.47-6.421 5.773-8.335 9.909-1.913 4.137-2.87 8.798-2.87 13.985 0 5.186 0.957 9.909 2.87 14.169 1.914 4.26 4.693 7.625 8.335 10.094 3.643 2.47 7.996 3.705 13.058 3.705z"/><path d="m587.94 181.42c-8.396 0-14.971-2.407-19.725-7.223s-7.131-11.36-7.131-19.634v-91.313h25.375v90.573c0 1.605 0.586 2.994 1.759 4.167s2.563 1.76 4.168 1.76h20.559v21.67zm-42.971-72.791v-21.671h67.976v21.671z"/></g><g fill="#00b677" fill-rule="nonzero"><path d="m667.02 181.42c-8.396 0-14.971-2.407-19.725-7.223s-7.131-11.36-7.131-19.634v-91.313h25.375v90.573c0 1.605 0.586 2.994 1.759 4.167s2.563 1.76 4.168 1.76h20.559v21.67zm-42.971-72.791v-21.671h67.976v21.671z" clip-rule="evenodd" stroke-linejoin="round" stroke-miterlimit="2"/><path d="m704.96 181.4v-94.462h25.56v94.462zm12.78-105.76c-4.322 0-8.057-1.575-11.206-4.724-3.149-3.148-4.723-6.884-4.723-11.205 0-4.322 1.574-8.057 4.723-11.206s6.884-4.723 11.206-4.723 8.057 1.574 11.206 4.723c3.148 3.149 4.723 6.884 4.723 11.206 0 4.321-1.575 8.057-4.723 11.205-3.149 3.149-6.884 4.724-11.206 4.724z"/><path d="m789.98 84.711c8.026 0 15.126 1.266 21.3 3.797 6.174 2.532 11.36 6.113 15.559 10.743 4.198 4.631 7.408 10.064 9.631 16.3 2.223 6.235 3.334 13.058 3.334 20.466 0 9.261-1.883 17.473-5.649 24.635s-9.045 12.78-15.837 16.855c-6.791 4.075-14.817 6.112-24.078 6.112-3.952 0-7.749-0.556-11.391-1.667-3.643-1.111-6.915-2.717-9.817-4.816s-5.341-4.568-7.316-7.408h-0.185v52.417h-25.376v-86.128c0-10.495 2.038-19.571 6.113-27.227s9.847-13.583 17.318-17.781c7.47-4.198 16.268-6.298 26.394-6.298zm0 21.671c-4.94 0-9.23 1.235-12.873 3.705-3.643 2.469-6.421 5.803-8.335 10.001-1.914 4.199-2.871 8.891-2.871 14.077s0.957 9.879 2.871 14.077 4.692 7.532 8.335 10.002c3.643 2.469 7.933 3.704 12.873 3.704 5.062 0 9.384-1.235 12.965-3.704 3.581-2.47 6.328-5.804 8.242-10.002s2.871-8.891 2.871-14.077-0.957-9.878-2.871-14.077c-1.914-4.198-4.661-7.532-8.242-10.001-3.581-2.47-7.903-3.705-12.965-3.705z"/></g></svg>
